<svg id="Layer_1" data-name="Layer 1" xmlns="http://www.w3.org/2000/svg" viewBox="0 0 43.8 43.8"><defs><style>.cls-1{fill:#f5af70;}.cls-2{fill:#101010;}</style></defs><circle class="cls-1" cx="21.9" cy="21.9" r="21.9"/><path class="cls-2" d="M23.12,25.83a3.55,3.55,0,0,1-1.5,3,5,5,0,0,1-1.63.78,6.93,6.93,0,0,1-2,.27H10.4V14.12h8.45a3.1,3.1,0,0,1,1.49.36,3.6,3.6,0,0,1,1.13.92,4.54,4.54,0,0,1,.73,1.29,4.3,4.3,0,0,1,.25,1.45,4.25,4.25,0,0,1-.58,2.17,3.54,3.54,0,0,1-1.69,1.5,4.07,4.07,0,0,1,2.15,1.43A4.2,4.2,0,0,1,23.12,25.83Zm-9.65-9.09v4h4.09a1.83,1.83,0,0,0,1.32-.53,2,2,0,0,0,.55-1.47,2,2,0,0,0-.5-1.44,1.64,1.64,0,0,0-1.24-.54ZM20,25.25a2.24,2.24,0,0,0-.15-.81,1.94,1.94,0,0,0-.39-.67,1.66,1.66,0,0,0-1.31-.63H13.47V27.3H18a1.92,1.92,0,0,0,.79-.16,1.81,1.81,0,0,0,.63-.43,1.87,1.87,0,0,0,.42-.66A1.94,1.94,0,0,0,20,25.25Z"/><path class="cls-2" d="M29.76,29.9a6.4,6.4,0,0,1-2.45-.46,5.54,5.54,0,0,1-3.07-3.12,5.91,5.91,0,0,1-.42-2.21,6.19,6.19,0,0,1,.41-2.28,5.5,5.5,0,0,1,3.07-3.15,6.75,6.75,0,0,1,4.95,0,5.85,5.85,0,0,1,3.4,5.86,2.42,2.42,0,0,1,0,.43H26.88a3.31,3.31,0,0,0,.32,1.18,2.82,2.82,0,0,0,.67.89,3,3,0,0,0,.92.56,3.27,3.27,0,0,0,2.7-.23,2.25,2.25,0,0,0,1.05-1.11L35,27a5,5,0,0,1-2,2.12A6.19,6.19,0,0,1,29.76,29.9Zm2.93-6.81a3,3,0,0,0-.94-2,2.85,2.85,0,0,0-2-.77,2.82,2.82,0,0,0-1.09.21,3,3,0,0,0-.89.57,3,3,0,0,0-.64.88,3.3,3.3,0,0,0-.29,1.14Z"/><path class="cls-2" d="M26,14.87h7.55v1.87H26Z"/></svg>