<svg id="Layer_1" data-name="Layer 1" xmlns="http://www.w3.org/2000/svg" viewBox="0 0 591.33 13.79"><defs><style>.cls-1{fill:none;stroke:#101010;stroke-linejoin:round;}.cls-2{fill:#101010;}</style></defs><line class="cls-1" y1="6.9" x2="249.95" y2="6.9"/><line class="cls-1" x1="341.39" y1="6.9" x2="591.33" y2="6.9"/><path class="cls-2" d="M333.53,1.93A1.92,1.92,0,0,1,333,3.3L323,13.23a1.93,1.93,0,1,1-2.73-2.74L330.23.57a1.94,1.94,0,0,1,3.3,1.36Z"/><path class="cls-2" d="M333.53,11.86a1.94,1.94,0,0,1-3.3,1.37L320.3,3.3A1.93,1.93,0,1,1,323,.57L333,10.49A1.94,1.94,0,0,1,333.53,11.86Z"/><path class="cls-2" d="M302.53,1.93A1.92,1.92,0,0,1,302,3.3L292,13.23a1.94,1.94,0,0,1-2.74-2.74L299.23.57a1.94,1.94,0,0,1,3.3,1.36Z"/><path class="cls-2" d="M302.53,11.86a1.94,1.94,0,0,1-3.3,1.37L289.3,3.3A1.93,1.93,0,1,1,292,.57L302,10.49A1.94,1.94,0,0,1,302.53,11.86Z"/><path class="cls-2" d="M271.54,1.93A1.92,1.92,0,0,1,271,3.3L261,13.23a1.93,1.93,0,0,1-2.73-2.74L268.24.57a1.94,1.94,0,0,1,3.3,1.36Z"/><path class="cls-2" d="M271.54,11.86a1.94,1.94,0,0,1-3.3,1.37L258.31,3.3A1.93,1.93,0,1,1,261,.57L271,10.49A1.94,1.94,0,0,1,271.54,11.86Z"/></svg>