<svg id="Layer_1" data-name="Layer 1" xmlns="http://www.w3.org/2000/svg" viewBox="0 0 75.78 13.79"><defs><style>.cls-1{fill:#101010;}</style></defs><path class="cls-1" d="M75.78,1.93a2,2,0,0,1-.56,1.37l-9.93,9.93a1.93,1.93,0,0,1-2.73-2.74L72.48.57a1.93,1.93,0,0,1,3.3,1.36Z"/><path class="cls-1" d="M75.78,11.86a2,2,0,0,1-.56,1.37,2,2,0,0,1-2.74,0L62.56,3.3A1.93,1.93,0,0,1,65.29.57l9.93,9.92A2,2,0,0,1,75.78,11.86Z"/><path class="cls-1" d="M44.79,1.93a1.92,1.92,0,0,1-.57,1.37l-9.93,9.93a1.93,1.93,0,1,1-2.73-2.74L41.49.57a1.94,1.94,0,0,1,3.3,1.36Z"/><path class="cls-1" d="M44.79,11.86a1.94,1.94,0,0,1-3.3,1.37L31.56,3.3A1.93,1.93,0,1,1,34.29.57l9.93,9.92A1.94,1.94,0,0,1,44.79,11.86Z"/><path class="cls-1" d="M13.79,1.93a2,2,0,0,1-.56,1.37L3.3,13.23A1.93,1.93,0,0,1,.57,10.49L10.49.57a1.93,1.93,0,0,1,3.3,1.36Z"/><path class="cls-1" d="M13.79,11.86a2,2,0,0,1-.56,1.37,2,2,0,0,1-2.74,0L.57,3.3A1.93,1.93,0,0,1,3.3.57l9.93,9.92A2,2,0,0,1,13.79,11.86Z"/></svg>