<svg id="Layer_1" data-name="Layer 1" xmlns="http://www.w3.org/2000/svg" viewBox="0 0 75.28 75.28"><defs><style>.cls-1,.cls-2{fill:#fff;}.cls-2{font-size:22.25px;font-family:Montserrat-Bold, Montserrat;font-weight:700;}</style></defs><path class="cls-1" d="M73.89,75.28H1.39A1.39,1.39,0,0,1,0,73.89V1.39A1.39,1.39,0,0,1,1.39,0h72.5a1.39,1.39,0,0,1,1.39,1.39v72.5A1.39,1.39,0,0,1,73.89,75.28ZM2.78,72.5H72.5V2.78H2.78Z"/><path class="cls-1" d="M14.76,60.48a1.37,1.37,0,0,1-1-.4,1.38,1.38,0,0,1,0-2l46.05-46a1.39,1.39,0,1,1,2,2L15.74,60.08a1.37,1.37,0,0,1-1,.4"/><text class="cls-2" transform="translate(11.01 26.21)">M</text><text class="cls-2" transform="translate(44.02 61.43)">M</text></svg>